<svg id="Layer_1" enable-background="new 0 0 512.05 512.05" height="512" viewBox="0 0 512.05 512.05" width="512" xmlns="http://www.w3.org/2000/svg"><g><g clip-rule="evenodd" fill-rule="evenodd"><path d="m120.037 404.734v34.626l-30 17.313-30-17.313v-34.626l30-17.313zm301.975-280.105-29.999-17.313v-34.626l30-17.313 29.999 17.313v34.626zm69.282 5.357c22.091-38.246 8.981-87.153-29.282-109.234-38.263-22.082-87.189-8.977-109.281 29.269-11.061 19.15-13.296 40.972-7.969 60.761l-234.09 233.991c-34.111-9.123-71.419 5.268-89.915 37.291-22.091 38.246-8.981 87.153 29.282 109.234 38.263 22.082 87.189 8.977 109.281-29.269 11.061-19.15 13.296-40.971 7.969-60.761l234.091-233.991c34.11 9.123 71.417-5.268 89.914-37.291z" fill="#e7e9ef"/><path d="m199.457 256.025 56.568-56.544-1.625-1.624-87.161-87.124c9.127-34.096-5.271-71.388-37.307-89.877-23.931-13.81-52.032-13.853-75.131-2.592-11.417 5.566-10.099 11.116-1.288 16.201 8.949 5.165 17.898 10.329 26.847 15.493 6.515 3.76 9.573 7.861 9.573 14.895 0 5.342.001 6.153 0 11.494 0 10.704-2.65 15.291-11.923 20.643-4.628 2.671-5.331 3.075-9.958 5.746-6.095 3.517-11.177 2.921-17.692-.839-8.949-5.164-17.897-10.329-26.846-15.493-8.811-5.085-14.279-3.451-13.393 9.216 1.794 25.626 15.881 49.93 39.813 63.741 19.158 11.056 40.989 13.291 60.786 7.965l43.557 43.538z" fill="#a7bdcd"/><path d="m312.593 256.025-56.568 56.544 1.625 1.624 87.16 87.123c-9.127 34.096 5.271 71.388 37.308 89.877 23.931 13.811 52.032 13.854 75.131 2.593 11.417-5.566 10.099-11.116 1.289-16.201-8.949-5.164-17.898-10.329-26.847-15.493-6.515-3.761-9.573-7.861-9.573-14.896 0-5.342-.001-6.152 0-11.494 0-10.703 2.65-15.291 11.923-20.643 4.628-2.671 5.33-3.075 9.958-5.746 6.095-3.517 11.177-2.921 17.691.839 8.949 5.165 17.898 10.329 26.847 15.493 8.811 5.085 14.279 3.451 13.393-9.216-1.793-25.626-15.881-49.93-39.812-63.741-19.158-11.056-40.989-13.291-60.786-7.966l-43.556-43.538z" fill="#a7bdcd"/><path d="m167.24 110.733c9.127-34.096-5.271-71.388-37.307-89.877-23.932-13.81-52.033-13.853-75.132-2.592-11.417 5.566-10.099 11.116-1.288 16.201 8.949 5.165 17.898 10.329 26.847 15.493 6.515 3.76 9.573 7.861 9.573 14.895 0 5.342.001 6.153 0 11.494 0 10.704-2.65 15.291-11.923 20.643-4.628 2.671-5.331 3.075-9.958 5.746-6.095 3.517-11.177 2.921-17.692-.839-8.949-5.164-17.897-10.329-26.846-15.493-8.811-5.085-14.279-3.451-13.393 9.216 1.794 25.626 15.881 49.93 39.813 63.741 19.158 11.056 40.989 13.291 60.786 7.965z" fill="#e7e9ef"/><path d="m401.33 344.725-56.52 56.592c-9.127 34.096 5.271 71.388 37.308 89.877 23.931 13.811 52.032 13.854 75.131 2.593 11.417-5.566 10.099-11.116 1.289-16.201-8.949-5.164-17.898-10.329-26.847-15.493-6.515-3.761-9.573-7.861-9.573-14.896 0-5.342-.001-6.152 0-11.494 0-10.703 2.65-15.291 11.923-20.643 4.628-2.671 5.33-3.075 9.958-5.746 6.095-3.517 11.177-2.921 17.691.839 8.949 5.165 17.898 10.329 26.847 15.493 8.811 5.085 14.279 3.451 13.393-9.216-1.793-25.626-15.881-49.93-39.812-63.741-19.159-11.055-40.99-13.29-60.788-7.964z" fill="#e7e9ef"/><g fill="#e3eaef"><path d="m159.319 462.029c11.061-19.15 13.296-40.971 7.969-60.761l-56.616-56.495c-34.111-9.123-71.419 5.268-89.915 37.291-22.091 38.246-8.981 87.153 29.282 109.234 38.262 22.082 87.189 8.978 109.28-29.269zm-39.282-22.669-30 17.313-30-17.313v-34.626l30-17.313 30 17.313z"/><path d="m401.379 167.277c34.111 9.123 71.419-5.268 89.915-37.291 22.091-38.246 8.981-87.153-29.282-109.234-38.263-22.082-87.189-8.977-109.281 29.269-11.061 19.15-13.296 40.972-7.969 60.761zm50.633-59.961-30 17.313-29.999-17.313v-34.626l30-17.313 29.999 17.313z"/></g></g><g><path d="m467.115 344.029c-19.14-11.046-41.176-14.634-62.649-10.309l-77.728-77.695 77.787-77.754c5.806 1.152 11.637 1.713 17.42 1.712 31.562-.001 61.664-16.699 78.009-44.997 12.021-20.812 15.214-45.057 8.991-68.27-6.223-23.212-21.115-42.612-41.935-54.627-42.975-24.799-98.126-10.028-122.938 32.931-11.051 19.132-14.641 41.16-10.315 62.624l-77.732 77.698-6.311-6.308c-3.907-3.905-10.239-3.903-14.142.003-3.904 3.906-3.903 10.238.003 14.142l6.305 6.302-42.423 42.405-74.598-74.567 42.386-42.441 4.677 4.675c3.906 3.904 10.237 3.902 14.142-.003 3.904-3.906 3.903-10.238-.003-14.142l-7.827-7.823c7.441-37.478-9.807-76.058-43.304-95.39-25.95-14.975-57.544-16.068-84.511-2.92-8.946 4.361-13.603 10-13.839 16.761-.232 6.636 3.784 12.386 11.935 17.09l26.847 15.493c4.571 2.638 4.571 3.916 4.571 6.234v11.493c0 7.167-.712 8.398-6.922 11.982l-9.957 5.746c-1.945 1.124-3.12 1.802-7.696-.839l-26.846-15.493c-8.151-4.705-15.139-5.304-20.769-1.785-5.736 3.585-8.292 10.435-7.598 20.36 2.095 29.922 18.839 56.728 44.79 71.704 19.139 11.046 41.178 14.634 62.648 10.309l77.728 77.696-77.786 77.753c-37.491-7.442-76.088 9.801-95.428 43.284-12.021 20.812-15.214 45.057-8.992 68.27 6.223 23.212 21.115 42.612 41.934 54.627 14.138 8.159 29.586 12.036 44.846 12.034 31.125-.002 61.443-16.137 78.092-44.963 11.051-19.132 14.641-41.16 10.315-62.624l77.731-77.699 77.79 77.757c-7.441 37.479 9.808 76.059 43.304 95.39 13.901 8.023 29.418 12.061 44.98 12.061 13.487-.001 27.01-3.036 39.531-9.14 8.946-4.361 13.603-10.001 13.839-16.762.231-6.636-3.783-12.385-11.935-17.09l-26.846-15.492c-4.571-2.639-4.572-3.916-4.572-6.234v-11.494c0-7.166.712-8.398 6.922-11.982l9.957-5.746c1.946-1.123 3.12-1.801 7.695.839l26.847 15.493c8.149 4.705 15.139 5.305 20.77 1.785 5.735-3.585 8.292-10.436 7.597-20.36-2.091-29.922-18.835-56.727-44.787-71.704zm-412.183-193.33c-19.863-11.463-32.791-31.841-34.749-54.672l25.179 14.531c6.254 3.61 15.931 7.625 27.689.839l9.958-5.746c12.337-7.12 16.924-15.062 16.925-29.304v-11.494c0-13.575-8.317-19.945-14.574-23.556l-25.171-14.526c20.764-9.719 44.88-8.717 64.745 2.746 26.634 15.371 40.056 46.379 33.26 76.121l-52.57 52.637c-17.315 4.001-35.219 1.353-50.692-7.576zm306.459-95.676c19.3-33.412 62.194-44.901 95.623-25.61 16.191 9.344 27.773 24.432 32.612 42.483 4.839 18.05 2.356 36.904-6.991 53.087-12.716 22.014-36.124 35.003-60.674 35.001-5.14 0-10.333-.574-15.486-1.75l-52.663-52.551c-3.999-17.305-1.352-35.198 7.579-50.66zm-210.731 402.005c-19.299 33.412-62.195 44.9-95.623 25.609-16.192-9.344-27.774-24.432-32.613-42.483-4.839-18.05-2.355-36.904 6.992-53.088 12.715-22.014 36.124-35.001 60.673-35.001 5.141 0 10.334.574 15.487 1.75l52.664 52.551c3.998 17.307 1.351 35.199-7.58 50.662zm16.622-69.893-42.459-42.368 219.946-219.853 42.458 42.368zm102.888-74.566 42.423-42.405 74.598 74.567-42.386 42.441zm196.519 88.924c-6.255-3.611-15.931-7.625-27.689-.84l-9.958 5.746c-12.337 7.12-16.924 15.063-16.924 29.302v11.497c.002 13.574 8.318 19.944 14.575 23.556l25.169 14.524c-20.762 9.721-44.881 8.718-64.745-2.746-26.634-15.371-40.056-46.379-33.26-76.122l52.568-52.636c17.318-3.999 35.222-1.352 50.694 7.577 19.863 11.463 32.791 31.84 34.749 54.672z"/><path d="m387.015 115.978 30 17.313c1.546.893 3.272 1.339 4.998 1.339s3.452-.446 4.998-1.339l29.999-17.313c3.096-1.786 5.002-5.088 5.002-8.661v-34.626c0-3.573-1.906-6.875-5.002-8.661l-29.999-17.313c-3.091-1.785-6.903-1.786-9.996 0l-30 17.313c-3.096 1.786-5.002 5.088-5.002 8.661v34.626c0 3.573 1.906 6.874 5.002 8.661zm14.998-37.513 20-11.542 19.999 11.542v23.076l-19.999 11.542-20-11.542z"/><path d="m125.036 396.073-30-17.313c-3.094-1.785-6.903-1.785-9.997 0l-30 17.313c-3.095 1.786-5.001 5.088-5.001 8.661v34.625c0 3.573 1.907 6.875 5.001 8.661l30 17.313c1.547.893 3.272 1.339 4.999 1.339s3.452-.446 4.999-1.339l30-17.313c3.095-1.786 5.001-5.088 5.001-8.661v-34.625c-.001-3.573-1.908-6.875-5.002-8.661zm-14.999 37.511-20 11.542-20-11.542v-23.076l20-11.542 20 11.542z"/><path d="m210.82 164.295c5.523 0 10-4.477 10-10s-4.477-10-10-10h-.007c-5.523 0-9.996 4.477-9.996 10s4.48 10 10.003 10z"/></g></g></svg>